<?xml version="1.0" encoding="utf-8"?>
<!-- Generator: Adobe Illustrator 16.0.3, SVG Export Plug-In . SVG Version: 6.00 Build 0)  -->
<!DOCTYPE svg PUBLIC "-//W3C//DTD SVG 1.1//EN" "http://www.w3.org/Graphics/SVG/1.1/DTD/svg11.dtd">
<svg version="1.1" id="Capa_1" xmlns="http://www.w3.org/2000/svg" xmlns:xlink="http://www.w3.org/1999/xlink" x="0px" y="0px"
	 width="1191.232px" height="842.826px" viewBox="0 0 1191.232 842.826" enable-background="new 0 0 1191.232 842.826"
	 xml:space="preserve">
<g>
	<path fill-rule="evenodd" clip-rule="evenodd" fill="#841EFF" d="M878.374,423.206c0,1.278,0.005,2.557-0.001,3.836
		c-0.154,36.313-0.307,72.628-0.466,108.941c-0.067,15.357-0.148,30.715-0.224,46.071c-0.005,0.96-0.028,1.92-0.024,2.879
		c0.021,4.555-2.029,7.987-5.782,10.413c-2.147,1.387-4.392,2.624-6.61,3.898c-53.799,30.896-107.6,61.792-161.402,92.682
		c-36.608,21.018-73.22,42.028-109.835,63.034c-1.524,0.874-3.066,1.729-4.658,2.471c-3.384,1.575-6.816,1.594-10.191-0.029
		c-1.582-0.761-3.108-1.645-4.629-2.527c-35.405-20.544-70.808-41.093-106.207-61.647c-41.345-24.008-82.682-48.03-124.031-72.03
		c-14.244-8.268-28.518-16.481-42.771-24.732c-1.243-0.721-2.476-1.476-3.633-2.325c-4.46-3.272-6.533-7.708-6.419-13.233
		c0.108-5.276,0.167-10.555,0.179-15.832c0.211-100.304,0.412-200.607,0.618-300.911c0.003-1.599-0.02-3.203,0.085-4.796
		c0.331-5.003,2.622-8.789,7.047-11.264c3.628-2.029,7.212-4.136,10.818-6.206c66.56-38.216,133.119-76.432,199.681-114.646
		c22.187-12.738,44.377-25.47,66.569-38.2c1.248-0.716,2.502-1.424,3.785-2.074c3.847-1.949,7.71-1.876,11.512,0.094
		c2.129,1.103,4.2,2.318,6.273,3.522c74.805,43.445,149.606,86.895,224.408,130.344c15.485,8.995,30.972,17.99,46.451,26.996
		c1.52,0.884,3.039,1.78,4.479,2.784c3.227,2.249,4.926,5.386,5.1,9.317c0.063,1.438,0.041,2.879,0.041,4.318
		c0.002,51.512,0.002,103.024,0.002,154.536c0,1.438,0,2.878,0,4.317C878.484,423.206,878.429,423.206,878.374,423.206z
		 M298.193,420.6c-0.146,0-0.292,0-0.438,0c0,52.635,0,105.27,0,157.904c0,1.28,0,2.561,0.015,3.84
		c0.04,3.153,1.468,5.493,4.173,7.076c1.656,0.969,3.313,1.938,4.972,2.902c28.49,16.538,56.982,33.072,85.469,49.615
		c61.675,35.816,123.349,71.638,185.023,107.455c0.83,0.481,1.682,0.924,2.502,1.421c2.847,1.726,5.697,1.885,8.6,0.122
		c1.229-0.746,2.51-1.408,3.758-2.124c50.762-29.132,101.525-58.259,152.283-87.398c40.356-23.169,80.704-46.353,121.056-69.529
		c0.832-0.478,1.672-0.941,2.499-1.43c2.25-1.326,3.349-3.4,3.594-5.909c0.155-1.586,0.074-3.197,0.076-4.796
		c0.063-62.873,0.065-125.746,0.205-188.62c0.093-42.075,0.317-84.15,0.658-126.223c0.044-5.414-1.728-8.809-6.547-11.564
		c-27.764-15.876-55.364-32.035-83.021-48.1c-63.053-36.627-126.105-73.256-189.161-109.881c-1.382-0.803-2.809-1.53-4.188-2.336
		c-2.598-1.518-5.159-1.442-7.728,0.063c-0.828,0.484-1.69,0.909-2.521,1.386c-4.578,2.624-9.151,5.257-13.727,7.885
		c-55.332,31.771-110.663,63.545-165.997,95.311c-31.065,17.833-62.138,35.654-93.205,53.484c-1.525,0.875-3.05,1.755-4.538,2.692
		c-2.182,1.376-3.422,3.31-3.338,5.973c0.021,0.639-0.005,1.28-0.007,1.92C298.505,314.692,298.349,367.646,298.193,420.6z"/>
	<path fill-rule="evenodd" clip-rule="evenodd" fill="#7D13FF" d="M585.556,739.208c-0.688-0.393-1.192-0.537-1.488-0.868
		c-61.233-68.629-122.452-137.271-183.661-205.922c-0.409-0.458-0.675-1.042-1.206-1.88c0.867-0.333,1.522-0.743,2.213-0.815
		c1.267-0.133,2.555-0.081,3.834-0.081c100.78-0.001,201.56,0.002,302.34-0.001c19.835-0.001,39.67-0.027,59.506-0.035
		c1.234-0.001,2.529-0.197,3.657,0.817c-0.155,0.509-0.164,1.041-0.432,1.343C708.855,601.029,647.13,670.058,585.556,739.208z"/>
	<path fill-rule="evenodd" clip-rule="evenodd" fill="#7E13FF" d="M388.157,512.414c-0.238-0.192-0.623-0.342-0.693-0.583
		c-23.813-81.778-47.604-163.563-71.373-245.355c-0.12-0.414,0.096-0.925,0.178-1.576c0.979-0.406,1.961-0.929,3.008-1.23
		c84.309-24.235,168.624-48.455,252.944-72.653c0.416-0.119,0.924,0.054,1.383,0.127c0.142,0.022,0.265,0.168,0.545,0.359
		c-0.189,0.538-0.307,1.169-0.61,1.693c-61.512,106.291-123.038,212.575-184.582,318.848
		C388.837,512.253,388.431,512.295,388.157,512.414z"/>
	<path fill-rule="evenodd" clip-rule="evenodd" fill="#7E13FF" d="M781.071,513.25c-1.176-1.664-1.778-2.39-2.244-3.194
		C717.59,404.168,656.363,298.273,595.152,192.37c-0.136-0.236-0.017-0.619-0.017-0.929c1.314-0.771,2.495-0.098,3.698,0.246
		c13.825,3.958,27.65,7.917,41.476,11.874c58.221,16.667,116.441,33.333,174.661,50.002c11.061,3.167,22.118,6.345,33.173,9.533
		c1.655,0.477,3.441,0.707,4.832,2.215c0.118,1.745-0.498,3.381-0.986,5.056c-14.401,49.401-28.789,98.807-43.181,148.211
		c-8.671,29.766-17.344,59.53-26.023,89.293C782.349,509.371,781.839,510.85,781.071,513.25z"/>
	<path fill-rule="evenodd" clip-rule="evenodd" fill="#7E14FF" d="M563.542,730.818c-1.573-0.745-3.213-1.373-4.708-2.25
		c-45.376-26.636-90.763-53.252-136.092-79.966c-34.859-20.543-69.644-41.211-104.458-61.829c-1.776-1.052-3.521-2.155-5.134-3.146
		c-0.025-1.941,1.339-2.352,2.364-3.025c19.376-12.747,38.757-25.484,58.138-38.224c3.074-2.021,6.135-4.062,9.228-6.053
		c1.189-0.766,2.45-1.419,3.854-2.224c1.052,0.959,2.058,1.733,2.896,2.659c19.537,21.59,39.056,43.196,58.579,64.8
		c17.27,19.11,34.54,38.222,51.809,57.332c20.595,22.791,41.194,45.577,61.771,68.384c0.839,0.931,1.47,2.047,2.199,3.077
		C563.839,730.509,563.691,730.663,563.542,730.818z"/>
	<path fill-rule="evenodd" clip-rule="evenodd" fill="#7E14FF" d="M784.241,533.632c24.794,16.392,49.062,32.435,73.315,48.498
		c0.365,0.241,0.551,0.754,0.818,1.136c-2.996,2.498-182.801,108.598-247.011,145.754c-1.096,0.635-2.264,1.145-3.407,1.692
		c-0.11,0.053-0.301-0.012-0.434-0.069c-0.143-0.063-0.26-0.184-0.552-0.4c0.44-0.631,0.821-1.322,1.337-1.893
		C666.842,663.553,725.386,598.765,784.241,533.632z"/>
	<path fill-rule="evenodd" clip-rule="evenodd" fill="#7E15FF" d="M652.551,385.445c-1.204,0.254-2.118,0.613-3.033,0.615
		c-7.334,0.013-14.667-0.041-22.109-0.075c-0.558-1.805-1.017-3.319-1.493-4.827c-1.538-4.865-4.787-7.843-9.828-8.729
		c-1.88-0.33-3.798-0.61-5.699-0.616c-16.474-0.047-32.947-0.06-49.419,0.008c-2.542,0.01-5.111,0.319-7.618,0.768
		c-5.755,1.03-9.814,6.021-9.867,11.886c-0.064,7.181,3.679,11.846,10.751,13.079c2.82,0.492,5.714,0.753,8.577,0.77
		c13.273,0.078,26.549,0.037,39.823,0.029c1.278-0.001,2.559-0.032,3.834-0.112c6.333-0.393,12.456,0.56,18.258,3.125
		c14.499,6.408,24.135,16.99,27.73,32.676c0.071,0.312,0.191,0.614,0.239,0.929c4.263,28.25-12.35,47.258-32.804,53.088
		c-3.87,1.103-7.849,1.486-11.856,1.45c-7.034-0.064-14.068-0.301-21.103-0.293c-7.995,0.009-15.992,0.381-23.982,0.251
		c-4.123-0.067-8.29-0.597-12.338-1.411c-12.79-2.574-29.697-15.668-33.122-35c-0.501-2.828-1.191-5.624-0.602-8.746
		c0.672-0.249,1.381-0.736,2.094-0.742c7.355-0.059,14.711-0.05,22.067-0.021c0.601,0.002,1.201,0.291,1.934,0.48
		c0.413,1.604,0.761,3.142,1.205,4.65c2.559,8.705,9.331,14.055,18.335,14.121c15.033,0.109,30.068,0.138,45.101-0.009
		c10.228-0.1,17.905-7.208,19.074-17.338c0.814-7.067-3.655-17.634-14.962-20.055c-2.318-0.496-4.76-0.573-7.146-0.582
		c-14.074-0.049-28.148-0.009-42.222-0.028c-3.037-0.005-6.074-0.178-9.111-0.19c-14.539-0.062-31.187-11.605-35.493-29.4
		c-1.33-5.499-1.835-11.14-0.807-16.669c3.09-16.619,12.764-27.505,29.139-32.15c1.968-0.558,4.094-0.773,6.147-0.778
		c21.751-0.055,43.502-0.03,65.253-0.039c3.237-0.001,6.369,0.578,9.385,1.705c13.572,5.071,22.283,14.556,25.758,28.678
		C653.371,378.907,653.271,381.952,652.551,385.445z"/>
	<path fill-rule="evenodd" clip-rule="evenodd" fill="#7E14FF" d="M308.404,275.931c0.467,0.744,0.802,1.09,0.923,1.5
		c23.991,80.874,47.967,161.752,71.923,242.636c0.127,0.429-0.038,0.943-0.064,1.378c-2.284,2.058-69.012,48.7-71.549,49.969
		c-0.375,0.188-0.882,0.111-1.641,0.188c-0.178-1.135-0.465-2.183-0.485-3.236c-0.073-3.837-0.073-7.677-0.07-11.515
		c0.076-89.888,0.149-179.775,0.254-269.662C307.699,283.572,307.633,279.927,308.404,275.931z"/>
	<path fill-rule="evenodd" clip-rule="evenodd" fill="#7E13FF" d="M862.824,277.414c0.633,5.513,1.165,276.029,0.56,291.495
		c-0.03,0.771-0.208,1.535-0.364,2.642c-1.063-0.275-2.046-0.3-2.754-0.754c-3.363-2.157-6.688-4.38-9.96-6.675
		c-18.46-12.94-36.904-25.905-55.345-38.875c-1.686-1.185-3.309-2.458-4.999-3.72c0.208-1.323,0.262-2.443,0.567-3.489
		c23.476-80.185,46.884-160.389,71.573-240.211C862.162,277.633,862.575,277.549,862.824,277.414z"/>
	<path fill-rule="evenodd" clip-rule="evenodd" fill="#7E14FF" d="M579.523,177.849c-3.013,1.286-245.313,72.323-248.414,72.858
		c-0.408,0.071-0.866-0.143-1.906-0.338c3.731-2.392,7.244-4.134,10.623-6.093c3.458-2.005,6.954-3.946,10.436-5.91
		c3.482-1.963,6.968-3.92,10.454-5.877c3.485-1.957,6.973-3.91,10.459-5.867s6.972-3.914,10.455-5.874
		c3.344-1.882,6.685-3.771,10.029-5.653c3.484-1.961,6.97-3.917,10.455-5.875s6.968-3.918,10.453-5.877
		c3.485-1.958,6.972-3.913,10.456-5.874s6.962-3.931,10.445-5.893c3.482-1.962,6.968-3.92,10.452-5.879
		c3.484-1.959,6.969-3.917,10.453-5.877c3.484-1.96,6.967-3.923,10.452-5.881s6.971-3.915,10.458-5.869
		c3.487-1.955,6.979-3.9,10.464-5.858c3.485-1.958,6.963-3.929,10.446-5.891c3.483-1.962,6.968-3.92,10.454-5.876
		c3.347-1.878,6.7-3.746,10.044-5.627c3.484-1.96,6.959-3.935,10.442-5.898c3.482-1.963,6.968-3.919,10.453-5.877
		c3.485-1.958,6.972-3.913,10.456-5.874c3.483-1.961,6.96-3.934,10.444-5.894c3.484-1.961,6.951-3.951,10.465-5.857
		c3.482-1.889,6.804-4.097,10.807-5.745c0.834,1.833,0.657,3.558,0.64,5.242c-0.114,11.038-0.245,22.075-0.365,33.113
		c-0.091,8.318-0.164,16.636-0.269,24.955C579.742,174.559,579.61,176.134,579.523,177.849z"/>
	<path fill-rule="evenodd" clip-rule="evenodd" fill="#7E14FF" d="M834.345,249.767c-14.559-4.266-29.129-8.489-43.673-12.806
		c-63.54-18.86-127.074-37.744-190.605-56.636c-2.743-0.816-5.438-1.796-8.313-2.752c-0.309-11.346-0.651-22.508-0.904-33.672
		c-0.252-11.125-0.385-22.252-0.471-33.113c2.229-1.02,3.357,0.155,4.548,0.824c8.917,5.011,17.81,10.066,26.702,15.12
		c66.421,37.748,132.841,75.496,199.259,113.25c5.141,2.922,10.262,5.877,15.392,8.817
		C835.635,249.121,834.989,249.444,834.345,249.767z"/>
	<path fill-rule="evenodd" clip-rule="evenodd" fill="#AB6BFF" d="M834.345,249.767c0.645-0.322,1.29-0.646,1.935-0.968
		c1.225,0.242,2.219,0.771,3.021,2.415C837.232,251.051,835.677,250.869,834.345,249.767z"/>
	<path fill-rule="evenodd" clip-rule="evenodd" fill="#7E14FF" d="M563.987,730.354c0.143,0.288,0.285,0.576,0.427,0.864
		c-0.29-0.134-0.581-0.268-0.872-0.401C563.691,730.663,563.839,730.509,563.987,730.354z"/>
</g>
</svg>
